HIERARCHY
ROOT ui
{
	 OFFSET 0 0 0
	 CHANNELS 3 XPosition YPosition Z Position
	 EndSite
	 {
	 OFFSET 0 -1 0
	 }
}
ROOT li
{
	 OFFSET 0 0 0
	 CHANNELS 3 XPosition YPosition Z Position
	 EndSite
	 {
	 OFFSET 0 -1 0
	 }
}
ROOT ul
{
	 OFFSET 0 0 0
	 CHANNELS 3 XPosition YPosition Z Position
	 EndSite
	 {
	 OFFSET 0 -1 0
	 }
}
ROOT ll
{
	 OFFSET 0 0 0
	 CHANNELS 3 XPosition YPosition Z Position
	 EndSite
	 {
	 OFFSET 0 -1 0
	 }
}
ROOT tt
{
	 OFFSET 0 0 0
	 CHANNELS 3 XPosition YPosition Z Position
	 EndSite
	 {
	 OFFSET 0 -1 0
	 }
}
ROOT tb
{
	 OFFSET 0 0 0
	 CHANNELS 3 XPosition YPosition Z Position
	 EndSite
	 {
	 OFFSET 0 -1 0
	 }
}
ROOT td
{
	 OFFSET 0 0 0
	 CHANNELS 3 XPosition YPosition Z Position
	 EndSite
	 {
	 OFFSET 0 -1 0
	 }
}
ROOT v
{
	 OFFSET 0 0 0
	 CHANNELS 3 XPosition YPosition Z Position
	 EndSite
	 {
	 OFFSET 0 -1 0
	 }
}
ROOT bn
{
	 OFFSET 0 0 0
	 CHANNELS 3 XPosition YPosition Z Position
	 EndSite
	 {
	 OFFSET 0 -1 0
	 }
}
MOTION
Frames: 13
Frame Time: 0.002
-2.6806000620126723E-5	-0.0017804100513458252	0		0.4369559936523438	-2.363554931640625	0		-1.0047184448242188	0.23344654846191407	0		-0.7024754028320312	-2.7418671875	0		1.7225111083984375	-0.5137647094726563	0		3.358419677734375	-0.21994798278808594	0		4.4355859375	-0.22151620483398438	0		5.9865	0.43999050903320314	0		0.009470661163330079	5.9421220703125	0		
-1.331620067358017E-4	-0.0017628040313720703	0		0.436865478515625	-2.363534423828125	0		-1.0048263549804688	0.23345741271972656	0		-0.6937559204101562	-2.752024169921875	0		1.7165238037109376	-0.5076221313476562	0		3.334109130859375	-0.23044772338867187	0		4.43136767578125	-0.22739138793945313	0		5.98223876953125	0.4321260986328125	0		0.008343689918518067	5.94315869140625	0		
-2.5234299898147585E-4	-0.0017493929862976074	0		0.4128934326171875	-2.3560625	0		-1.075857177734375	0.23882115173339843	0		-0.72468701171875	-2.742423583984375	0		1.7253668212890625	-0.5097734375	0		3.329896240234375	-0.2353441467285156	0		4.4192705078125	-0.22613197326660156	0		5.978251953125	0.43923776245117185	0		-0.10704476928710938	5.931369140625	0		
0.006752458095550537	0.00512553596496582	0		0.4438196716308594	-2.35364453125	0		-0.9959231567382812	0.24130259704589843	0		-0.731581787109375	-2.730282958984375	0		1.7354669189453125	-0.49795510864257814	0		3.358630126953125	-0.2428834686279297	0		4.42981689453125	-0.2433249969482422	0		5.982970703125	0.4311589965820313	0		-0.09198956298828125	5.9410908203125	0		
-5.115600228309631E-4	-0.0017328720092773438	0		0.40380560302734375	-2.346876220703125	0		-1.01603173828125	0.24269258117675782	0		-0.699857666015625	-2.73788427734375	0		1.7143572998046874	-0.4965508422851562	0		3.345443115234375	-0.24563398742675782	0		4.43272216796875	-0.24138365173339843	0		5.9779931640625	0.43924920654296873	0		0.023154489517211913	5.953900390625	0		
0.0034316270351409913	0.0021940410137176515	0		0.464347900390625	-2.36403515625	0		-1.0202388916015626	0.23877745056152344	0		-0.7359365234375	-2.734191162109375	0		1.7142230224609376	-0.49655322265625	0		3.331064208984375	-0.2583728637695312	0		4.4195146484375	-0.24514730834960938	0		5.9737294921875	0.43230853271484376	0		0.024024984359741212	5.95288525390625	0		
-7.742559909820557E-4	-0.0017275580167770387	0		0.41031103515625	-2.358006103515625	0		-1.02542431640625	0.2358799285888672	0		-0.6652462768554688	-2.743540283203125	0		1.7100146484375	-0.5004834594726563	0		3.33577880859375	-0.2664823608398437	0		4.42521044921875	-0.25428123474121095	0		5.9736015625	0.43227969360351565	0		0.007736775875091553	5.94319384765625	0		
-8.997640013694763E-4	-0.0017288919687271117	0		0.44016604614257815	-2.3585830078125	0		-1.0164163208007813	0.24271151733398438	0		-0.7341844482421875	-2.7322216796875	0		1.7139617919921875	-0.4965720825195313	0		3.357475830078125	-0.2759220886230469	0		4.42581591796875	-0.26832540893554685	0		5.97761181640625	0.4391651611328125	0		-0.1436696319580078	5.92807958984375	0		
0.003057619094848633	0.0021901159286499025	0		0.4073253479003906	-2.3429619140625	0		-1.0173609619140624	0.2517315979003906	0		-0.6583531494140625	-2.734672607421875	0		1.716916259765625	-0.4926448974609375	0		3.325380859375	-0.2743360900878906	0		4.42569580078125	-0.268357421875	0		5.97749609375	0.439123291015625	0		0.02375424385070801	5.952880859375	0		
-0.001126834988594055	-0.0017388010025024415	0		0.4590592041015625	-2.350962890625	0		-1.026619384765625	0.24390512084960939	0		-0.73036962890625	-2.728299560546875	0		1.7137286376953125	-0.49660324096679687	0		3.35295947265625	-0.2908944091796875	0		4.41531982421875	-0.28219650268554686	0		5.98540771484375	0.43992813110351564	0		0.022700666427612304	5.9538935546875	0		
0.0028518469333648684	0.0021759788990020753	0		0.42995587158203125	-2.350418701171875	0		-0.9627078247070312	0.24367849731445312	0		-0.6714718017578125	-2.72843212890625	0		1.707744873046875	-0.490506103515625	0		3.346823974609375	-0.29280389404296875	0		4.411107421875	-0.28814871215820315	0		5.98116064453125	0.43196853637695315	0		0.007425415992736817	5.94317431640625	0		
-0.0043640689849853516	-0.004698620796203613	0		0.41898135375976564	-2.344220703125	0		-1.03677685546875	0.24508689880371093	0		-0.7423983764648437	-2.71908349609375	0		1.7135440673828124	-0.4966351623535156	0		3.33853076171875	-0.30366983032226563	0		4.4078896484375	-0.29511456298828126	0		5.973080078125	0.43209176635742186	0		0.007361955165863037	5.94316455078125	0		
0.0027007761001586915	0.0021552610397338866	0		0.4157764892578125	-2.351173828125	0		-1.0168861083984375	0.24269554138183594	0		-0.7275689086914062	-2.724379150390625	0		1.722703369140625	-0.48482327270507813	0		3.32246533203125	-0.30338037109375	0		4.41266748046875	-0.3032269287109375	0		5.97301318359375	0.43207095336914064	0		0.023492290496826173	5.952845703125	0		
